<svg width="70" height="148" xmlns="http://www.w3.org/2000/svg" xmlns:xlink="http://www.w3.org/1999/xlink" overflow="hidden"><defs><clipPath id="clip0"><rect x="611" y="33" width="70" height="148"/></clipPath></defs><g clip-path="url(#clip0)" transform="translate(-611 -33)"><path d="M646.28 132.736C639.443 132.736 633.919 138.362 633.919 145.327 633.919 152.291 639.443 157.943 646.28 157.943 653.117 157.943 658.666 152.291 658.666 145.327 658.666 138.388 653.117 132.736 646.28 132.736ZM646.28 99.1255C639.443 99.1255 633.919 104.752 633.919 111.717 633.919 118.681 639.443 124.333 646.28 124.333 653.117 124.333 658.666 118.681 658.666 111.717 658.666 104.752 653.117 99.1255 646.28 99.1255ZM646.28 65.5156C639.443 65.5156 633.919 71.1425 633.919 78.1068 633.919 85.071 639.443 90.7231 646.28 90.7231 653.117 90.7231 658.666 85.071 658.666 78.1068 658.666 71.1425 653.117 65.5156 646.28 65.5156ZM646.28 34C662.034 34 676.483 44.5194 680.892 59.1039L681 59.2075 681 176.773 680.869 177.203C680.085 179.089 678.426 180.507 676.411 180.928L675.709 181 615.685 180.773 615.012 180.56C612.79 179.602 611.229 177.359 611.229 174.748L611.229 139.044 611.104 139.044 611.104 126.427 611.229 126.427 611.229 105.434 611.104 105.434 611.104 92.8174 611.229 92.8174 611.229 71.8238 611.104 71.8238 611.104 59.2075C611.666 59.2075 610.608 59.1039 611.17 59.1039 615.58 44.5194 630.551 34 646.28 34Z" fill="#00A44A" fill-rule="evenodd"/></g></svg>