<svg width="461" height="514" xmlns="http://www.w3.org/2000/svg" xmlns:xlink="http://www.w3.org/1999/xlink" overflow="hidden"><defs><clipPath id="clip0"><rect x="76" y="103" width="461" height="514"/></clipPath></defs><g clip-path="url(#clip0)" transform="translate(-76 -103)"><path d="M327.42 104 421.288 104C426.199 104 430.514 107.379 431.386 112.294L462.92 260.723C464.389 267.635 465.903 274.598 467.372 281.51L535.765 603.251C536.453 606.374 535.581 609.498 533.791 611.955 531.771 614.413 528.65 616 525.529 616L327.42 616C323.048 616 319.322 613.35 317.731 609.563L317.183 606.822 317.183 113.178 317.731 110.437C319.322 106.65 323.048 104 327.42 104ZM191.737 104 285.604 104C291.434 104 296.116 108.71 296.116 114.547L296.116 260.723 296.404 260.723 296.404 281.51 296.116 281.51 296.116 605.453C296.116 611.29 291.434 616 285.604 616L87.2661 616C84.1448 616 81.2531 614.413 79.2334 611.955 77.2596 609.498 76.5711 606.374 77.2596 603.251L145.423 281.51C146.937 274.598 148.406 267.635 149.921 260.723L181.409 112.294C182.511 107.379 186.825 104 191.737 104Z" fill-rule="evenodd"/></g></svg>